<?xml version="1.0" encoding="UTF-8" standalone="no"?>
<!-- Created with Inkscape (http://www.inkscape.org/) -->

<svg
   width="74.581001mm"
   height="15.649mm"
   viewBox="0 0 74.581001 15.649"
   version="1.1"
   id="svg1"
   inkscape:version="1.4.2 (f4327f4, 2025-05-13)"
   sodipodi:docname="ecosante_logo.svg"
   xmlns:inkscape="http://www.inkscape.org/namespaces/inkscape"
   xmlns:sodipodi="http://sodipodi.sourceforge.net/DTD/sodipodi-0.dtd"
   xmlns="http://www.w3.org/2000/svg"
   xmlns:svg="http://www.w3.org/2000/svg">
  <sodipodi:namedview
     id="namedview1"
     pagecolor="#ffffff"
     bordercolor="#666666"
     borderopacity="1.0"
     inkscape:showpageshadow="2"
     inkscape:pageopacity="0.0"
     inkscape:pagecheckerboard="0"
     inkscape:deskcolor="#d1d1d1"
     inkscape:document-units="mm"
     inkscape:zoom="2.6532575"
     inkscape:cx="175.82161"
     inkscape:cy="31.093854"
     inkscape:window-width="2400"
     inkscape:window-height="1271"
     inkscape:window-x="2391"
     inkscape:window-y="-9"
     inkscape:window-maximized="1"
     inkscape:current-layer="g2" />
  <defs
     id="defs1" />
  <g
     inkscape:label="Calque 1"
     inkscape:groupmode="layer"
     id="layer1"
     transform="translate(-44.450008,-93.397916)">
    <g
       id="g1"
       style="fill:#ffffff"
       transform="translate(0.99986774,0.50007108)">
      <g
         id="g3"
         style="fill:#ffffff">
        <path
           id="path1-9-1"
           style="fill:#ffffff;fill-opacity:1;stroke-width:0.206336"
           d="m 53.89169,93.397916 v 4.11e-4 c -0.84826,0 -1.33006,0.946803 -0.8313,1.633578 0.0877,0.120705 0.31416,0.307956 0.42709,0.353123 0.0158,0.0063 -0.0169,0.49459 -0.0728,1.085106 -0.0558,0.590516 -0.10235,1.118741 -0.1034,1.173787 -0.002,0.09717 -0.008,0.100118 -0.2113,0.101771 -0.19137,0.0016 -0.3245,0.01463 -0.9204,0.09032 l -0.2019,0.02578 -0.11361,-0.372738 -0.11404,-0.372737 0.1925,-0.188002 c 0.56616,-0.552743 0.59566,-1.381553 0.069,-1.950328 -0.22331,-0.241205 -0.46704,-0.377403 -0.7892,-0.441805 -0.43462,-0.08689 -0.9753,0.105947 -1.28332,0.457742 -0.23872,0.272642 -0.32073,0.509149 -0.32247,0.931024 -0.002,0.318696 0.008,0.36611 0.11648,0.586491 0.22706,0.461221 0.66196,0.756325 1.16154,0.788388 l 0.26442,0.01716 0.11076,0.331864 c 0.12299,0.369171 0.13109,0.423006 0.065,0.423418 -0.10451,6.72e-4 -0.87026,0.407227 -1.17257,0.622452 -0.17954,0.127815 -0.47203,0.375782 -0.64984,0.550932 -0.17781,0.17515 -0.33045,0.318379 -0.33922,0.318379 -0.009,0 -0.46952,-0.34614 -1.02421,-0.769177 -0.65797,-0.50181 -1.00586,-0.789646 -1.00092,-0.828028 0.004,-0.03235 0.0343,-0.173765 0.0671,-0.313887 0.0498,-0.213136 0.0525,-0.293269 0.0172,-0.490848 -0.16695,-0.932638 -1.12463,-1.435959 -1.98383,-1.042603 -0.40393,0.184925 -0.7073,0.592936 -0.78185,1.051595 -0.0958,0.589591 0.23091,1.201477 0.78185,1.464375 0.40734,0.194385 0.96284,0.163366 1.334,-0.07482 l 0.13364,-0.08583 1.03116,0.785937 c 0.56705,0.432409 1.03877,0.793434 1.04832,0.801874 l 4.1e-4,4.1e-4 4.1e-4,4.1e-4 c 10e-5,2e-4 3.3e-4,7.9e-4 4.1e-4,0.002 0.004,0.0164 -0.0326,0.0958 -0.0846,0.18391 -0.26806,0.45408 -0.50757,1.06466 -0.60243,1.5355 -0.0595,0.29512 -0.0672,0.30985 -0.16552,0.32124 -0.16706,0.0194 -0.2714,-0.0244 -0.33024,-0.13815 -0.0755,-0.14595 -0.25985,-0.27909 -0.4602,-0.33267 -0.24035,-0.0643 -0.4735,0.007 -0.67272,0.20639 -0.35387,0.35387 -0.2656,0.92307 0.17861,1.14968 0.29726,0.15165 0.70401,0.0693 0.90486,-0.18351 0.0779,-0.098 0.0998,-0.1057 0.25299,-0.0879 l 0.16797,0.0196 0.0204,0.44139 c 0.0251,0.53807 0.12644,1.0391 0.30081,1.48768 0.20377,0.52423 0.23271,0.45162 -0.29304,0.73403 l -0.46061,0.24726 -0.22479,-0.10135 c -0.46763,-0.21144 -0.97472,-0.0948 -1.26656,0.29138 -0.16954,0.22431 -0.22856,0.43208 -0.20517,0.72341 0.0427,0.53236 0.4691,0.93285 0.99519,0.9347 0.4363,0.002 0.76591,-0.19723 0.95064,-0.57341 0.0865,-0.17607 0.10154,-0.25126 0.0989,-0.48636 -0.003,-0.27553 -0.002,-0.27873 0.10913,-0.33473 0.0618,-0.0311 0.26262,-0.13826 0.44589,-0.23827 l 0.33309,-0.18187 0.18923,0.25422 c 0.1973,0.26533 0.7356,0.83275 0.93266,0.98293 l 0.11444,0.0871 c 0.0802,0.0599 0.2106,0.15747 0.27179,0.20314 h -4.2e-4 -4e-4 -4.1e-4 -4.1e-4 v 4.2e-4 4e-4 h 4.1e-4 c 0.13768,0.0708 1.37179,0.72793 2.36557,0.80106 0.30446,0.0541 0.60563,0.0331 0.91426,0.0102 l 0.31512,-0.043 c 0.17315,-0.0236 0.46085,-0.0859 0.63962,-0.13855 0.17876,-0.0527 0.34819,-0.0982 0.37641,-0.10095 0.032,-0.003 0.62011,-0.2954 0.64861,-0.30489 0.0238,-0.008 0.19398,-0.0925 0.3568,-0.21785 0.77445,-0.59595 0.44211,-0.32798 0.78021,-0.60692 l 0.15898,-0.16552 c 0.69925,-0.72861 1.19167,-1.71331 1.3524,-2.70438 0.0697,-0.42944 0.0699,-1.26029 7.9e-4,-1.68304 -0.17746,-1.08554 -0.75748,-2.17859 -1.53468,-2.890752 l -0.23745,-0.217431 0.11852,-0.14754 c 0.10712,-0.133296 0.1345,-0.147738 0.28528,-0.148354 0.52229,-0.0024 0.87598,-0.53725 0.66169,-1.000101 -0.26758,-0.577949 -1.03098,-0.604808 -1.31725,-0.04658 -0.0717,0.139908 -0.0903,0.453739 -0.0351,0.592619 0.0214,0.05394 -1.2e-4,0.110408 -0.0826,0.218246 -0.0612,0.08007 -0.11557,0.151803 -0.12057,0.158984 v 4.11e-4 h -4e-4 -4.1e-4 l -4.1e-4,4.03e-4 h -4.1e-4 -4.1e-4 c -0.0118,7.91e-4 -0.0581,-0.02404 -0.10912,-0.06011 -0.32511,-0.229792 -1.09842,-0.541892 -1.59926,-0.64534 -0.15624,-0.03227 -0.29064,-0.06549 -0.29875,-0.07355 -0.0152,-0.01519 0.16739,-2.161479 0.19495,-2.291999 0.01,-0.04563 0.0774,-0.09853 0.18146,-0.141007 0.23421,-0.09553 0.47094,-0.344108 0.55011,-0.577902 0.23808,-0.703012 -0.24026,-1.389201 -0.96862,-1.389201 z m -0.94656,6.414578 c 1.69736,-0.110312 3.17169,1.156116 3.31867,2.850706 l 0.0115,0.27015 c 1.1e-4,1.70087 -1.35907,3.09001 -3.05954,3.12698 -1.70064,0.0369 -3.11891,-1.29225 -3.19237,-2.9917 -0.0736,-1.69931 1.22448,-3.145846 2.9218,-3.256136 z"
           sodipodi:nodetypes="ccssssccccccssssscccssssssssssscccccccsssssssscccscccsscssscccccccccccccccssccsccscccscssssccccccccsssssccccccc" />
        <path
           id="path13-8-4-8"
           style="fill:#ffffff;fill-opacity:0.513636;stroke-width:0.138586;stroke-linecap:square;paint-order:fill markers stroke"
           d="m 55.322369,102.94906 a 2.1363759,2.1363759 0 0 1 -2.090153,2.13587 2.1363759,2.1363759 0 0 1 -2.180599,-2.04345 2.1363759,2.1363759 0 0 1 1.995794,-2.2243 2.1363759,2.1363759 0 0 1 2.266961,1.9472" />
      </g>
      <g
         id="text13"
         style="font-size:8.06112px;line-height:1.25;font-family:'Bebas Neue';-inkscape-font-specification:'Bebas Neue';text-align:center;letter-spacing:-0.275059px;text-anchor:middle;fill:#008000;fill-opacity:1;stroke-width:0.0839873"
         aria-label="ATLAS ÉCOSANTÉ"
         transform="matrix(0.84439501,0,0,0.84439501,55.22441,68.2023)">
        <g
           id="g2"
           style="fill:#008000">
          <path
             style="font-weight:bold;font-size:7.31042px;font-family:'Mona Sans';-inkscape-font-specification:'Mona Sans Bold';stroke-width:0.0383738;fill:#ffffff"
             d="m 6.7864078,38.039482 1.7691216,-5.329296 h 1.6229136 l 1.769121,5.329296 H 10.763276 L 9.593609,34.259995 9.3962277,33.572815 h -0.051173 l -0.2046918,0.68718 -1.1696672,3.779487 z m 1.4401527,-1.096563 0.2339334,-0.87725 h 1.8129841 l 0.233934,0.87725 z m 4.6866255,1.096563 v -4.452046 h 1.140426 v 4.452046 z m -1.57174,-4.342389 v -0.986907 h 4.313148 v 0.986907 z m 4.710649,4.342389 v -5.329296 h 1.140426 v 4.510529 l -0.16814,-0.190071 h 2.544026 v 1.008838 z m 3.649596,0 1.769122,-5.329296 h 1.622913 l 1.769122,5.329296 h -1.184289 l -1.169667,-3.779487 -0.197381,-0.68718 h -0.05117 l -0.204692,0.68718 -1.169667,3.779487 z m 1.440153,-1.096563 0.233933,-0.87725 h 1.812984 l 0.233934,0.87725 z m 5.980566,1.162357 q -0.723732,0 -1.21353,-0.219313 -0.489798,-0.219312 -0.738352,-0.614075 -0.248555,-0.394763 -0.255865,-0.906492 h 1.162357 q 0.0073,0.263175 0.116967,0.460556 0.116966,0.190071 0.3509,0.299728 0.241244,0.109656 0.621385,0.109656 0.292417,0 0.51173,-0.06579 0.219312,-0.0731 0.336279,-0.219312 0.116967,-0.153519 0.116967,-0.387453 0,-0.17545 -0.05848,-0.292417 -0.05848,-0.116966 -0.204692,-0.197381 -0.138898,-0.08041 -0.380142,-0.131587 -0.241244,-0.05848 -0.599455,-0.124278 -0.460556,-0.06579 -0.811456,-0.19007 -0.34359,-0.124278 -0.577523,-0.307038 -0.233934,-0.182761 -0.350901,-0.438625 -0.116966,-0.263175 -0.116966,-0.614076 0,-0.504419 0.248554,-0.862629 0.255865,-0.365521 0.723732,-0.562903 0.467867,-0.197381 1.111183,-0.197381 0.628697,0 1.081943,0.197381 0.453246,0.197382 0.7018,0.555592 0.255865,0.358211 0.255865,0.833388 h -1.147736 q -0.0073,-0.255864 -0.138898,-0.416694 -0.124277,-0.160829 -0.328969,-0.233933 -0.204692,-0.0731 -0.460557,-0.0731 -0.270485,0 -0.467866,0.0731 -0.190071,0.06579 -0.292417,0.204692 -0.102346,0.131587 -0.102346,0.336279 0,0.212002 0.109656,0.34359 0.109656,0.124277 0.387452,0.204691 0.285107,0.0731 0.782215,0.16083 0.34359,0.05117 0.665249,0.138898 0.321658,0.08773 0.584833,0.263175 0.263175,0.168139 0.416694,0.475177 0.153519,0.299727 0.153519,0.782215 0,0.475177 -0.248554,0.848009 -0.241244,0.365521 -0.731042,0.570213 -0.482488,0.197381 -1.21353,0.197381 z m 3.93848,-0.06579 v -5.329296 h 3.874523 v 0.972286 h -2.975341 l 0.241244,-0.241244 v 3.867212 l -0.241244,-0.241244 h 2.989962 v 0.972286 z m 0.899182,-2.251609 V 34.87407 h 2.61713 v 0.913803 z m 0.52635,-3.530933 0.416694,-1.060011 h 1.067321 l -0.665248,1.060011 z m 5.305912,5.848336 q -0.599455,0 -1.089253,-0.182761 -0.489798,-0.18276 -0.848009,-0.53366 -0.3509,-0.3509 -0.540971,-0.855319 -0.190071,-0.51173 -0.190071,-1.162357 0,-0.650628 0.190071,-1.155047 0.190071,-0.504419 0.540971,-0.855319 0.358211,-0.3509 0.848009,-0.53366 0.489798,-0.182761 1.089253,-0.182761 0.687179,0 1.22084,0.241244 0.533661,0.233933 0.86263,0.657938 0.336279,0.424004 0.402073,1.001527 H 39.12283 q -0.06579,-0.277796 -0.248554,-0.482487 -0.17545,-0.212003 -0.453246,-0.328969 -0.270486,-0.116967 -0.628696,-0.116967 -0.453246,0 -0.789526,0.197381 -0.336279,0.190071 -0.52635,0.584834 -0.18276,0.387452 -0.18276,0.972286 0,0.438625 0.102346,0.774904 0.109656,0.328969 0.307037,0.548282 0.197382,0.219312 0.467867,0.328969 0.277796,0.109656 0.621386,0.109656 0.34359,0 0.621385,-0.116967 0.277796,-0.116966 0.460557,-0.328969 0.190071,-0.212002 0.248554,-0.489798 h 1.155047 q -0.05848,0.570213 -0.394763,1.001528 -0.336279,0.431315 -0.87725,0.672558 -0.533661,0.233934 -1.21353,0.233934 z m 5.374857,0 q -0.599455,0 -1.089253,-0.182761 -0.489798,-0.18276 -0.848009,-0.53366 -0.3509,-0.3509 -0.540971,-0.855319 -0.190071,-0.51173 -0.190071,-1.162357 0,-0.650628 0.190071,-1.155047 0.190071,-0.504419 0.540971,-0.855319 0.358211,-0.3509 0.848009,-0.53366 0.489798,-0.182761 1.089253,-0.182761 0.606765,0 1.096563,0.182761 0.497108,0.18276 0.848008,0.53366 0.358211,0.3509 0.548282,0.855319 0.190071,0.504419 0.190071,1.155047 0,0.650627 -0.190071,1.162357 -0.190071,0.504419 -0.548282,0.855319 -0.35821,0.3509 -0.848008,0.53366 -0.489798,0.182761 -1.096563,0.182761 z m 0,-0.972286 q 0.467867,0 0.804146,-0.197381 0.336279,-0.197382 0.51904,-0.584834 0.190071,-0.394763 0.190071,-0.979596 0,-0.438625 -0.109657,-0.760284 -0.109656,-0.328969 -0.307037,-0.548281 -0.190071,-0.226623 -0.475178,-0.33628 -0.277796,-0.109656 -0.621385,-0.109656 -0.453246,0 -0.789526,0.197381 -0.336279,0.190071 -0.52635,0.584834 -0.18276,0.387452 -0.18276,0.972286 0,0.438625 0.102346,0.774904 0.109656,0.328969 0.307037,0.548282 0.197381,0.219312 0.467867,0.328969 0.277796,0.109656 0.621386,0.109656 z m 5.161804,0.972286 q -0.723732,0 -1.21353,-0.219313 -0.489798,-0.219312 -0.738352,-0.614075 -0.248555,-0.394763 -0.255865,-0.906492 h 1.162357 q 0.0073,0.263175 0.116966,0.460556 0.116967,0.190071 0.350901,0.299728 0.241244,0.109656 0.621385,0.109656 0.292417,0 0.51173,-0.06579 0.219312,-0.0731 0.336279,-0.219312 0.116967,-0.153519 0.116967,-0.387453 0,-0.17545 -0.05848,-0.292417 -0.05848,-0.116966 -0.204691,-0.197381 -0.138898,-0.08041 -0.380142,-0.131587 -0.241244,-0.05848 -0.599455,-0.124278 -0.460556,-0.06579 -0.811456,-0.19007 -0.34359,-0.124278 -0.577523,-0.307038 -0.233934,-0.182761 -0.350901,-0.438625 -0.116966,-0.263175 -0.116966,-0.614076 0,-0.504419 0.248554,-0.862629 0.255865,-0.365521 0.723732,-0.562903 0.467866,-0.197381 1.111183,-0.197381 0.628697,0 1.081943,0.197381 0.453246,0.197382 0.7018,0.555592 0.255865,0.358211 0.255865,0.833388 h -1.147736 q -0.0073,-0.255864 -0.138898,-0.416694 -0.124277,-0.160829 -0.328969,-0.233933 -0.204692,-0.0731 -0.460557,-0.0731 -0.270485,0 -0.467867,0.0731 -0.19007,0.06579 -0.292416,0.204692 -0.102346,0.131587 -0.102346,0.336279 0,0.212002 0.109656,0.34359 0.109656,0.124277 0.387452,0.204691 0.285107,0.0731 0.782215,0.16083 0.34359,0.05117 0.665248,0.138898 0.321659,0.08773 0.584834,0.263175 0.263175,0.168139 0.416694,0.475177 0.153519,0.299727 0.153519,0.782215 0,0.475177 -0.248554,0.848009 -0.241244,0.365521 -0.731042,0.570213 -0.482488,0.197381 -1.21353,0.197381 z m 2.255394,-0.06579 1.769122,-5.329296 h 1.622913 l 1.769122,5.329296 h -1.184288 l -1.169668,-3.779487 -0.197381,-0.68718 h -0.05117 l -0.204692,0.68718 -1.169667,3.779487 z m 1.440153,-1.096563 0.233933,-0.87725 h 1.812984 l 0.233934,0.87725 z m 4.081945,1.096563 v -5.329296 h 1.39629 l 2.222368,3.728314 h 0.04386 l -0.05117,-1.666776 v -2.061538 h 1.103873 v 5.329296 H 59.498522 L 57.268844,34.35503 h -0.04386 l 0.04386,1.542499 v 2.141953 z m 6.67716,0 v -4.452046 h 1.140425 v 4.452046 z m -1.571741,-4.342389 v -0.986907 h 4.313148 v 0.986907 z m 4.710648,4.342389 v -5.329296 h 3.874523 v 0.972286 h -2.975341 l 0.241243,-0.241244 v 3.867212 l -0.241243,-0.241244 h 2.989961 v 0.972286 z m 0.899182,-2.251609 V 34.87407 h 2.61713 v 0.913803 z m 0.52635,-3.530933 0.416694,-1.060011 h 1.067321 l -0.665248,1.060011 z"
             id="text1"
             aria-label="ATLAS ÉCOSANTÉ" />
          <path
             style="font-size:7.31042px;font-family:'Mona Sans';-inkscape-font-specification:'Mona Sans';letter-spacing:0.323276px;stroke-width:0.0383738;fill:#ffffff"
             d="M 6.6907831,45.762947 V 40.433651 H 7.699621 l 1.1769777,3.150791 0.4459356,1.381669 h 0.043863 L 9.8123324,43.584442 10.98931,40.433651 h 1.008838 v 5.329296 h -0.606765 v -2.77796 l 0.02193,-1.981123 h -0.05117 l -0.643316,1.827605 -1.0892531,2.931478 H 9.0593592 L 7.9847274,42.86071 7.3341,41.003864 h -0.058483 l 0.029242,1.981123 v 2.77796 z m 9.1981199,0.06579 q -0.592144,0 -1.074632,-0.190071 -0.475177,-0.190071 -0.826078,-0.548282 -0.343589,-0.35821 -0.52635,-0.862629 -0.18276,-0.504419 -0.18276,-1.125805 0,-0.628696 0.18276,-1.133115 0.190071,-0.504419 0.533661,-0.855319 0.34359,-0.358211 0.818767,-0.548282 0.482488,-0.19007 1.074632,-0.19007 0.592144,0 1.067321,0.19007 0.475177,0.190071 0.818767,0.548282 0.3509,0.358211 0.533661,0.86263 0.18276,0.497108 0.18276,1.125804 0,0.628696 -0.190071,1.133115 -0.18276,0.504419 -0.52635,0.86263 -0.34359,0.3509 -0.826077,0.540971 -0.475178,0.190071 -1.060011,0.190071 z m 0,-0.548282 q 0.599454,0 1.038079,-0.263175 0.445936,-0.270485 0.679869,-0.752973 0.241244,-0.489798 0.241244,-1.162357 0,-0.511729 -0.138898,-0.913802 -0.131587,-0.402073 -0.394762,-0.679869 -0.255865,-0.285107 -0.614076,-0.431315 -0.35821,-0.153519 -0.811456,-0.153519 -0.606765,0 -1.04539,0.263175 -0.438626,0.263175 -0.679869,0.752973 -0.233934,0.482488 -0.233934,1.162357 0,0.504419 0.138898,0.913803 0.138898,0.402073 0.387452,0.687179 0.255865,0.277796 0.614076,0.431315 0.365521,0.146208 0.818767,0.146208 z m 3.883444,0.482488 v -5.329296 h 0.796836 l 3.004582,4.503219 h 0.03655 l -0.02924,-1.805674 v -2.697545 h 0.599454 v 5.329296 H 23.412936 L 20.408354,41.28166 h -0.03655 l 0.02924,1.710638 v 2.770649 z m 7.260865,0 v -4.861429 h 0.621385 v 4.861429 z m -1.725259,-4.781015 v -0.548281 h 4.086524 v 0.548281 z m 5.206641,4.781015 v -5.329296 h 2.046917 q 0.592144,0 1.008838,0.204692 0.424005,0.197381 0.643317,0.570212 0.226623,0.372832 0.226623,0.891872 0,0.511729 -0.241244,0.891871 -0.233933,0.372831 -0.657937,0.577523 -0.416694,0.197381 -0.986907,0.197381 h -1.498636 v -0.511729 h 1.454773 q 0.636007,0 0.957665,-0.314348 0.328969,-0.314348 0.328969,-0.826078 0,-0.548281 -0.343589,-0.840698 -0.33628,-0.292417 -0.943045,-0.292417 h -1.491325 l 0.116966,-0.109656 v 4.890671 z m 5.156517,0 v -5.329296 h 3.66252 v 0.548281 h -3.187343 l 0.146208,-0.146208 v 4.51784 l -0.146208,-0.146209 h 3.194654 v 0.555592 z m 0.475177,-2.470922 v -0.511729 h 2.829133 v 0.511729 z m 4.39518,2.470922 v -5.329296 h 0.621386 v 4.934533 l -0.146209,-0.17545 h 2.77065 v 0.570213 z m 4.380562,0 v -5.329296 h 0.621386 v 4.934533 l -0.146209,-0.17545 h 2.77065 v 0.570213 z m 4.380558,0 v -5.329296 h 0.621386 v 5.329296 z m 2.172817,0 v -5.329296 h 3.662521 v 0.548281 h -3.187343 l 0.146208,-0.146208 v 4.51784 l -0.146208,-0.146209 h 3.194653 v 0.555592 z m 0.475178,-2.470922 v -0.511729 h 2.829132 v 0.511729 z m 4.395176,2.470922 v -5.329296 h 2.448991 q 0.314348,0 0.570212,0.05848 0.263176,0.05848 0.467867,0.17545 0.204692,0.116967 0.34359,0.292417 0.138898,0.16814 0.212002,0.394763 0.0731,0.219312 0.0731,0.497108 0,0.489799 -0.248554,0.833388 -0.241244,0.33628 -0.716421,0.467867 v 0.04386 q 0.314348,0.05117 0.497109,0.190071 0.19007,0.131587 0.270485,0.3509 0.08772,0.219312 0.08772,0.52635 v 0.935734 q 0,0.131587 0.0073,0.270485 0.01462,0.138898 0.08041,0.292417 h -0.628696 q -0.05117,-0.116967 -0.0731,-0.255865 -0.01462,-0.138898 -0.01462,-0.328969 v -0.804146 q 0,-0.292417 -0.08773,-0.482487 -0.08041,-0.197382 -0.299727,-0.292417 -0.219313,-0.102346 -0.621386,-0.102346 H 56.88673 v -0.51904 h 1.776432 q 0.628696,0 0.891871,-0.285106 0.270486,-0.292417 0.270486,-0.745663 0,-0.255865 -0.08042,-0.438625 -0.08041,-0.190071 -0.241244,-0.307038 -0.153518,-0.124277 -0.365521,-0.17545 -0.212002,-0.05848 -0.475177,-0.05848 h -1.696017 v 4.795635 z"
             id="text1-1"
             aria-label="MONTPELLIER" />
        </g>
      </g>
    </g>
  </g>
</svg>
