<svg xmlns="http://www.w3.org/2000/svg" width="235.635" height="45.887"><g transform="translate(-13.527 -8.003)"><path d="M33.677 53.891a20.151 20.151 0 1120.151-20.15 20.173 20.173 0 01-20.151 20.15zm0-39.111a18.96 18.96 0 1018.96 18.96 18.982 18.982 0 00-18.96-18.959z" fill="#08b0a0"/><path d="M36.736 23.775c3.234 10.316 8.088 16.933 15.321 20.84-1.8 2.237-2.841 3.481-4.641 6.093-6.451-3.738-11.418-19.127-10.68-26.933z" fill="#fbba00"/><circle cx="2.291" cy="2.291" r="2.291" transform="translate(31.386 37.242)" fill="#e62336"/><path d="M35.81 8.006c-4.231 13.495-10.58 22.15-20.041 27.261 2.35 2.927 3.717 4.552 6.071 7.97 8.439-4.889 14.936-25.02 13.97-35.231zm32.064 11.022h9.049v2.541h-6.118v3.205h5.062v2.365h-5.062v5.57h-2.932zm9.185 8.599a5.1 5.1 0 1110.2 0 5.1 5.1 0 11-10.2 0zm5.1 2.912c1.368 0 2.424-.9 2.424-2.912s-1.056-2.912-2.424-2.912-2.423.9-2.423 2.912 1.052 2.912 2.423 2.912zm11.238-5.824a2 2 0 00-2.13 2.228v5.766h-2.854V22.545h2.854v2.13h.117a3.084 3.084 0 013.244-2.325c1.974 0 3.5 1.27 3.5 3.908v6.45h-2.853v-5.765c-.002-1.544-.686-2.228-1.878-2.228zm5.88 2.912c0-3.733 2.326-5.277 4.456-5.277a3.165 3.165 0 012.99 1.661v-4.983h2.853v13.681h-2.853v-1.466a3.165 3.165 0 01-2.99 1.661c-2.13 0-4.456-1.544-4.456-5.277zm5.14 2.912c1.251 0 2.424-.918 2.424-2.912s-1.173-2.912-2.424-2.912c-1.27 0-2.443.918-2.443 2.912s1.173 2.912 2.443 2.912zm6.312-.528c0-2.247 1.837-2.736 3.6-2.99l1.719-.254c.938-.137 1.231-.293 1.231-.86v-.137c0-1.075-.7-1.368-1.583-1.368-.919 0-1.74.293-1.74 1.348v.2h-2.678v-.469c0-1.994 1.329-3.127 4.5-3.127 3.069 0 4.3 1.094 4.3 3.3v7.055h-2.717v-1.8h-.118a3.235 3.235 0 01-3.244 1.993c-1.668-.003-3.27-.803-3.27-2.891zm4.241.86a2.128 2.128 0 002.306-1.7v-1.134c-.156.235-.645.313-1.094.391l-1.427.254c-.879.137-1.173.567-1.173 1.094 0 .623.411 1.095 1.388 1.095zm7.483-1.211v-4.906h-1.719v-2.208h1.719v-2.619h2.851v2.619h2.013v2.208h-2.013v4.5c0 .782.235 1.31 1.29 1.31a6.992 6.992 0 00.8-.039v2.13a6.324 6.324 0 01-1.564.2c-2.026-.009-3.377-.928-3.377-3.195zm7.427-11.453a1.573 1.573 0 11-1.563 1.583 1.585 1.585 0 011.563-1.583zm-1.426 4.339h2.853v10.162h-2.853zm4.005 5.081a5.1 5.1 0 1110.2 0 5.1 5.1 0 11-10.2 0zm5.1 2.912c1.367 0 2.423-.9 2.423-2.912s-1.056-2.912-2.423-2.912-2.424.9-2.424 2.912 1.057 2.912 2.425 2.912zm11.238-5.824a2 2 0 00-2.131 2.228v5.766h-2.853V22.545h2.853v2.13h.118a3.083 3.083 0 013.242-2.325c1.974 0 3.5 1.27 3.5 3.908v6.45h-2.853v-5.765c0-1.544-.684-2.228-1.876-2.228zm9.985 2.912c0-3.733 2.326-5.277 4.456-5.277a3.166 3.166 0 012.99 1.661v-4.983h2.853v13.681h-2.853v-1.466a3.166 3.166 0 01-2.99 1.661c-2.13 0-4.456-1.544-4.456-5.277zm5.14 2.912c1.251 0 2.424-.918 2.424-2.912s-1.173-2.912-2.424-2.912c-1.27 0-2.442.918-2.442 2.912s1.171 2.912 2.442 2.912zm6.311-2.932c0-3.791 2.4-5.257 5.1-5.257 2.619 0 4.827 1.368 4.827 5.218a3.942 3.942 0 01-.059.782h-7.152c.157 1.7 1.036 2.384 2.443 2.384 1.309 0 1.876-.527 2.111-1.348h2.521a4.389 4.389 0 01-4.671 3.518c-2.584-.005-5.12-1.427-5.12-5.297zm7.231-.938a2.015 2.015 0 00-2.208-2.15 2.175 2.175 0 00-2.306 2.15zm7.953-7.641h2.853v13.681h-2.853zm6.233 3.166c-1.309-.02-2.032-.782-2.032-1.72a1.6 1.6 0 011.7-1.622c1.075 0 1.935.762 1.935 2.521 0 2.013-1.153 3.205-2.912 3.205h-.215v-1.153c1.114-.039 1.524-.408 1.524-1.231zm6.138-3.166h3.772l4.943 13.681h-3.068l-.88-2.56h-5.765l-.879 2.56h-3.068zm4.026 8.951l-2.052-5.961h-.176l-2.052 5.961zm3.008-5.433h2.912l2.541 7.427h.1l2.541-7.427h2.893l-3.694 10.163h-3.6zm10.767 5.061c0-3.791 2.4-5.257 5.1-5.257 2.619 0 4.828 1.368 4.828 5.218a3.977 3.977 0 01-.059.782h-7.153c.156 1.7 1.036 2.384 2.443 2.384 1.309 0 1.876-.527 2.11-1.348h2.521a4.389 4.389 0 01-4.669 3.513c-2.58 0-5.121-1.422-5.121-5.292zm7.232-.938a2.015 2.015 0 00-2.209-2.15 2.175 2.175 0 00-2.306 2.15zm8.833-1.954a2 2 0 00-2.131 2.228v5.766h-2.853V22.545h2.853v2.13h.117a3.083 3.083 0 013.244-2.325c1.974 0 3.5 1.27 3.5 3.908v6.45h-2.853v-5.765c-.001-1.544-.685-2.228-1.877-2.228zm7.795-6.508a1.573 1.573 0 11-1.564 1.583 1.585 1.585 0 011.564-1.583zm-1.427 4.339h2.854v10.162h-2.854zm4.496 0h2.854v2.462h.078a2.983 2.983 0 013.713-2.482v2.4a6.145 6.145 0 00-.8-.059c-1.524 0-2.99.879-2.99 3.342v4.5h-2.854zm-138.386 23.34h-2.9l-.848 1.6h-1.107l3.744-6.824h.936l1.609 6.824h-1.1zm-.166-.77l-.662-3.147-1.668 3.149zm5.646.78h.917a2.311 2.311 0 01-2.34 1.658 1.924 1.924 0 01-2.067-2.047 2.905 2.905 0 012.8-3.139 1.7 1.7 0 011.9 1.667h-.9a.9.9 0 00-1.043-.858c-1.16 0-1.8 1.179-1.8 2.311a1.123 1.123 0 001.18 1.258 1.384 1.384 0 001.353-.85zm5.111 0h.916a2.311 2.311 0 01-2.34 1.658 1.924 1.924 0 01-2.067-2.047 2.905 2.905 0 012.8-3.139 1.7 1.7 0 011.9 1.667h-.9a.9.9 0 00-1.043-.858c-1.16 0-1.8 1.179-1.8 2.311a1.124 1.124 0 001.18 1.258 1.384 1.384 0 001.354-.85zm2.545-.585v.156a1.176 1.176 0 001.287 1.336 1.475 1.475 0 001.248-.526h.946a2.4 2.4 0 01-2.31 1.277 1.956 1.956 0 01-2.1-2.077 2.906 2.906 0 012.818-3.11 1.882 1.882 0 012 2.057 4.483 4.483 0 01-.107.887zm.1-.633h2.847a1.619 1.619 0 00.039-.38 1.093 1.093 0 00-1.17-1.18 1.8 1.8 0 00-1.719 1.559zm2.389-2.857h-.858l.751-1.248h1.375zm3.859-1.16l-1.073 6.824h-.985l1.073-6.824zm.995 4.65v.156a1.176 1.176 0 001.287 1.336 1.475 1.475 0 001.248-.526h.945a2.4 2.4 0 01-2.31 1.277 1.956 1.956 0 01-2.1-2.077 2.906 2.906 0 012.818-3.11 1.882 1.882 0 012 2.057 4.49 4.49 0 01-.107.887zm.1-.633h2.847a1.619 1.619 0 00.039-.38 1.093 1.093 0 00-1.17-1.18 1.8 1.8 0 00-1.719 1.559zm2.389-2.857h-.858l.751-1.248h1.375zm5.604.585l-.137.858c-.146-.01-.253-.01-.321-.01a1.937 1.937 0 00-1.989 1.511l-.429 2.72h-.985l.8-5.07h.984l-.2 1.287a1.918 1.918 0 011.862-1.336 2 2 0 01.415.04zm4.768 2.07a2.9 2.9 0 01-2.818 3.081 1.984 1.984 0 01-2.086-2.106 2.914 2.914 0 012.818-3.081 2 2 0 012.086 2.106zm-2.154-1.3a2.04 2.04 0 00-1.8 2.233 1.194 1.194 0 001.209 1.336 2.033 2.033 0 001.8-2.233 1.189 1.189 0 00-1.211-1.336zm7.528 1.268l-.488 3.042h-.985l.487-3.052c.156-.936-.273-1.238-.917-1.238a1.877 1.877 0 00-1.648 1.228l-.487 3.062h-.98l.8-5.07h.984l-.175 1.1a2.223 2.223 0 011.891-1.15c1.03.001 1.761.547 1.518 2.078zm3.082-1.326c-.693 0-1.141.321-1.141.78 0 .322.185.507.643.624l.79.195c.8.195 1.375.38 1.375 1.131 0 1.18-1.053 1.706-2.311 1.706-1.2 0-1.979-.507-1.95-1.579h.907c.029.634.5.839 1.1.839.7 0 1.268-.3 1.268-.867 0-.342-.234-.478-.673-.585l-.819-.195c-.877-.215-1.3-.614-1.3-1.258 0-.936.917-1.54 2.155-1.54 1.18 0 1.814.536 1.852 1.433h-.867c-.074-.499-.445-.684-1.029-.684zm6.972-2.457l-1.073 6.824h-.986l1.073-6.824zm4.348 5.869c-.039.273.068.37.342.36l-.1.575a1.166 1.166 0 01-.4.059c-.546 0-.887-.263-.78-.751l.049-.224a2.336 2.336 0 01-1.921 1c-.887 0-1.55-.429-1.55-1.326 0-1.1.809-1.5 1.969-1.658a7.966 7.966 0 001.784-.341c.146-.878-.244-1.112-.926-1.112s-1.043.234-1.209.7h-.936c.254-.985.917-1.452 2.2-1.452 1.482 0 2.018.614 1.814 1.95zm-.712-1.706a10.039 10.039 0 01-1.589.322c-.721.117-1.072.4-1.072.956 0 .458.293.731.839.731a2.09 2.09 0 001.648-.955zm8.211-2.418l-.137.858c-.146-.01-.253-.01-.321-.01a1.937 1.937 0 00-1.989 1.511l-.429 2.72h-.985l.8-5.07h.985l-.2 1.287a1.919 1.919 0 011.862-1.336 2 2 0 01.414.04zm.78 2.905v.156a1.176 1.176 0 001.287 1.336 1.475 1.475 0 001.248-.526h.946a2.406 2.406 0 01-2.311 1.277 1.956 1.956 0 01-2.1-2.077 2.906 2.906 0 012.818-3.11 1.882 1.882 0 012 2.057 4.515 4.515 0 01-.107.887zm.1-.633h2.847a1.64 1.64 0 00.039-.38 1.093 1.093 0 00-1.17-1.18 1.8 1.8 0 00-1.716 1.558zm7.789 1.218h.919a2.311 2.311 0 01-2.34 1.658 1.924 1.924 0 01-2.067-2.047 2.905 2.905 0 012.8-3.139 1.7 1.7 0 011.9 1.667h-.9a.9.9 0 00-1.043-.858c-1.16 0-1.8 1.179-1.8 2.311a1.123 1.123 0 001.179 1.258 1.384 1.384 0 001.352-.85zm6.533-1.472l-.487 3.062h-.985l.488-3.071c.146-.926-.273-1.219-.916-1.219a1.861 1.861 0 00-1.648 1.209l-.487 3.081h-.983l1.072-6.824h.985l-.448 2.837a2.214 2.214 0 011.891-1.13c1.03 0 1.761.525 1.518 2.055zm1.58.887v.156a1.176 1.176 0 001.287 1.336 1.474 1.474 0 001.248-.526h.946a2.406 2.406 0 01-2.31 1.277 1.956 1.956 0 01-2.1-2.077 2.906 2.906 0 012.818-3.11 1.882 1.882 0 012 2.057 4.519 4.519 0 01-.107.887zm.1-.633h2.846a1.6 1.6 0 00.039-.38 1.093 1.093 0 00-1.17-1.18 1.8 1.8 0 00-1.717 1.558zm7.994-2.272l-.137.858c-.146-.01-.253-.01-.321-.01a1.938 1.938 0 00-1.989 1.511l-.429 2.72h-.982l.8-5.07h.985l-.2 1.287a1.918 1.918 0 011.862-1.336 1.99 1.99 0 01.411.04zm3.344 3.49h.917a2.311 2.311 0 01-2.34 1.658 1.924 1.924 0 01-2.067-2.047 2.905 2.905 0 012.8-3.139 1.7 1.7 0 011.9 1.667h-.9a.9.9 0 00-1.043-.858c-1.16 0-1.8 1.179-1.8 2.311a1.123 1.123 0 001.179 1.258 1.384 1.384 0 001.354-.85zm6.534-1.472l-.487 3.061h-.985l.488-3.071c.146-.926-.273-1.219-.917-1.219a1.861 1.861 0 00-1.648 1.209l-.487 3.081h-.985l1.072-6.824h.985l-.448 2.837a2.213 2.213 0 011.892-1.131c1.033.002 1.763.527 1.52 2.057zm1.58.887v.156a1.176 1.176 0 001.287 1.336 1.474 1.474 0 001.248-.526h.946a2.406 2.406 0 01-2.311 1.277 1.956 1.956 0 01-2.1-2.077 2.906 2.906 0 012.818-3.11 1.882 1.882 0 012 2.057 4.519 4.519 0 01-.107.887zm.1-.633h2.846a1.6 1.6 0 00.039-.38 1.093 1.093 0 00-1.17-1.18 1.8 1.8 0 00-1.717 1.558zm7.867.633v.156a1.176 1.176 0 001.287 1.336 1.475 1.475 0 001.248-.526h.946a2.406 2.406 0 01-2.311 1.277 1.956 1.956 0 01-2.1-2.077 2.906 2.906 0 012.818-3.11 1.882 1.882 0 012 2.057 4.515 4.515 0 01-.107.887zm.1-.633h2.847a1.637 1.637 0 00.039-.38 1.093 1.093 0 00-1.17-1.18 1.8 1.8 0 00-1.718 1.558zm9.153-.234l-.488 3.042h-.985l.487-3.052c.156-.936-.273-1.238-.916-1.238a1.877 1.877 0 00-1.648 1.228l-.487 3.062h-.985l.8-5.07h.985l-.175 1.1a2.223 2.223 0 011.891-1.15c1.033.001 1.765.547 1.521 2.078zm5.724-1.326c-.692 0-1.14.321-1.14.78 0 .322.185.507.643.624l.79.195c.8.195 1.375.38 1.375 1.131 0 1.18-1.053 1.706-2.311 1.706-1.2 0-1.979-.507-1.95-1.579h.907c.029.634.5.839 1.1.839.7 0 1.268-.3 1.268-.867 0-.342-.234-.478-.673-.585l-.819-.195c-.877-.215-1.3-.614-1.3-1.258 0-.936.916-1.54 2.155-1.54 1.18 0 1.813.536 1.852 1.433h-.868c-.073-.499-.444-.684-1.029-.684zm6.661 3.412c-.039.273.068.37.342.36l-.1.575a1.171 1.171 0 01-.4.059c-.546 0-.887-.263-.78-.751l.049-.224a2.336 2.336 0 01-1.921 1c-.887 0-1.55-.429-1.55-1.326 0-1.1.809-1.5 1.969-1.658a7.955 7.955 0 001.784-.341c.147-.878-.243-1.112-.926-1.112s-1.043.234-1.209.7h-.937c.253-.985.917-1.452 2.2-1.452 1.482 0 2.018.614 1.814 1.95zm-.711-1.706a10.052 10.052 0 01-1.589.322c-.721.117-1.072.4-1.072.956 0 .458.293.731.839.731a2.09 2.09 0 001.648-.955zm6.727-.38l-.488 3.042h-.984l.487-3.052c.156-.936-.273-1.238-.916-1.238a1.877 1.877 0 00-1.648 1.228l-.487 3.062h-.985l.8-5.07h.989l-.175 1.1a2.222 2.222 0 011.891-1.15c1.029.001 1.76.547 1.516 2.078zm2.023 1.862c-.048.3.039.419.351.419a2.71 2.71 0 00.673-.078l-.127.78a2.544 2.544 0 01-.848.127c-.682 0-1.189-.244-1.024-1.267l.488-3.091h-.8l.117-.78h.809l.2-1.268h.985l-.2 1.268h1.024l-.127.78h-1.014zm2.757-.995v.156a1.176 1.176 0 001.287 1.336 1.474 1.474 0 001.248-.526h.946a2.406 2.406 0 01-2.311 1.277 1.956 1.956 0 01-2.1-2.077 2.905 2.905 0 012.818-3.11 1.882 1.882 0 012 2.057 4.492 4.492 0 01-.107.887zm.1-.633h2.847a1.621 1.621 0 00.039-.38 1.093 1.093 0 00-1.17-1.18 1.8 1.8 0 00-1.716 1.559zm2.389-2.857h-.858l.751-1.248h1.375z" fill="#004899"/></g></svg>